# xmcd
#
# Track frame offsets:
#	150
#	23255
#	44427
#	72702
#	88842
#	99755
#	113386
#	136583
#	169224
#	181251
#	191177
#	202619
#	217528
#	236151
#	248649
#
# Disc length: 3473
#
# Revision: 4
# Processed by: cddbd v1.5.1PL0 Copyright (c) Steve Scherf et al.
# Submitted via: CDex 1.51
# Normalized: r3:DSETVAR1,TDELIM( - )
#
DISCID=b80d8f0f
DTITLE=Various Artist - H.O.B. - Essential Blues [CD2]
DYEAR=1995
DGENRE=Blues
TTITLE0=Albert Collins - Master Charge
TTITLE1=Koko Taylor - Mother Nature
TTITLE2=Little Milton - Walking The Backstreets And Crying
TTITLE3=Hound Dog Taylor - Give Me Back My Wig
TTITLE4=James Brown - Prisoner Of Love
TTITLE5=B.B. King - You Upset Me Baby
TTITLE6=Latimore - Let's Straighten It Out
TTITLE7=Albert King - I'll Play The Blues For You (Parts I and II)
TTITLE8=Otis Spann - Must Have Been The Devil
TTITLE9=John Lee Hooker - Dimples
TTITLE10=Slim Harpo - Rainin' In My Heart
TTITLE11=Fenton Robinson - The Getaway
TTITLE12=Katie Webster - Too Much Sugar For A Dime
TTITLE13=Jimmy Reed - Bright Lights, Big City
TTITLE14=Junior Parker - Drivin' Wheel
EXTD=Blues Gods - House of Blues YEAR: 1995
EXTT0=
EXTT1=
EXTT2=
EXTT3=
EXTT4=
EXTT5=
EXTT6=
EXTT7=
EXTT8=
EXTT9=
EXTT10=
EXTT11=
EXTT12=
EXTT13=
EXTT14=
PLAYORDER=
